<?xml version="1.0" standalone="no"?>
<!DOCTYPE svg PUBLIC "-//W3C//DTD SVG 20010904//EN"
 "http://www.w3.org/TR/2001/REC-SVG-20010904/DTD/svg10.dtd">
<svg version="1.0" xmlns="http://www.w3.org/2000/svg"
 width="700.000000pt" height="700.000000pt" viewBox="0 0 700.000000 700.000000"
 preserveAspectRatio="xMidYMid meet">

<g transform="translate(0.000000,700.000000) scale(0.100000,-0.100000)"
fill="#000000" stroke="none">
<path d="M3288 6670 c-156 -12 -181 -18 -222 -52 -49 -41 -66 -82 -66 -163 0
-264 -160 -521 -396 -636 -251 -122 -577 -74 -781 115 -38 35 -82 70 -100 80
-39 20 -119 21 -156 1 -112 -58 -508 -449 -560 -552 -42 -83 -29 -139 54 -230
148 -164 209 -310 209 -505 0 -389 -285 -671 -711 -703 -161 -13 -202 -49
-221 -202 -14 -110 -14 -543 0 -641 19 -133 80 -178 258 -193 193 -15 345 -87
470 -222 104 -112 163 -238 185 -393 29 -212 -58 -450 -223 -606 -56 -53 -72
-132 -40 -200 24 -53 189 -243 312 -361 267 -255 325 -274 463 -150 169 151
311 207 527 207 113 0 133 -3 211 -30 294 -104 478 -373 479 -703 0 -117 54
-175 181 -190 206 -26 608 -21 719 9 40 11 93 61 109 103 6 16 11 57 11 93 0
100 27 209 75 309 156 322 506 469 848 355 118 -40 181 -76 268 -156 38 -36
81 -69 95 -74 32 -13 105 -13 137 -1 82 31 434 368 549 525 67 93 59 162 -33
263 -158 174 -216 323 -207 535 6 138 40 249 112 356 127 191 335 305 581 319
60 3 121 12 135 18 37 19 76 65 88 105 31 98 37 516 12 723 -15 125 -79 173
-253 188 -189 16 -327 78 -452 204 -89 89 -145 177 -176 275 -79 254 -23 505
157 700 128 140 127 198 -8 359 -147 174 -389 406 -465 444 -81 41 -138 28
-226 -50 -170 -151 -311 -207 -527 -207 -109 0 -136 4 -207 27 -147 49 -300
173 -381 309 -64 108 -101 253 -102 396 0 69 -14 103 -57 143 -40 38 -79 47
-251 59 -168 11 -275 11 -424 0z m566 -1369 c653 -133 1184 -604 1390 -1232
119 -362 119 -774 0 -1138 -19 -58 -64 -166 -100 -240 l-66 -134 -404 404
-404 404 21 55 c54 142 78 347 59 505 -52 431 -333 787 -734 931 -125 44 -242
64 -376 64 -113 0 -258 -21 -316 -45 -59 -24 -91 -103 -63 -158 6 -12 137
-149 292 -304 l280 -282 -7 -78 c-18 -204 -51 -370 -76 -383 -25 -13 -246 -49
-353 -57 l-87 -6 -288 286 c-250 248 -293 286 -326 292 -49 10 -99 -13 -125
-56 -47 -77 -68 -371 -37 -530 45 -237 157 -441 332 -608 146 -140 298 -224
503 -278 82 -22 119 -26 251 -27 169 -1 243 10 376 54 l81 28 407 -407 407
-407 -73 -42 c-255 -145 -515 -223 -802 -241 -1011 -63 -1873 693 -1946 1707
-52 733 349 1431 1016 1765 167 84 345 140 539 172 140 22 487 15 629 -14z"/>
</g>
</svg>
