<?xml version="1.0" standalone="no"?>
<!DOCTYPE svg PUBLIC "-//W3C//DTD SVG 20010904//EN"
 "http://www.w3.org/TR/2001/REC-SVG-20010904/DTD/svg10.dtd">
<svg version="1.0" xmlns="http://www.w3.org/2000/svg"
 width="1000.000000pt" height="1012.000000pt" viewBox="0 0 1000.000000 1012.000000"
 preserveAspectRatio="xMidYMid meet">

<g transform="translate(0.000000,1012.000000) scale(0.100000,-0.100000)"
fill="#000000" stroke="none">
<path d="M7787 10095 c-123 -20 -272 -73 -368 -131 -245 -148 -328 -298 -674
-1213 -180 -479 -256 -663 -356 -870 -121 -251 -170 -320 -336 -482 -108 -104
-423 -380 -518 -453 -11 -9 -2 -34 57 -143 l70 -131 282 206 c154 113 322 235
371 271 50 36 112 83 139 104 115 90 209 112 291 70 119 -62 285 -302 285
-410 0 -71 -58 -147 -190 -254 -30 -24 -125 -104 -210 -178 -85 -74 -156 -136
-158 -137 -3 -2 78 -285 83 -292 1 -1 53 38 115 88 256 202 402 295 533 338
188 63 377 96 962 172 586 76 803 114 1031 180 349 102 553 271 696 577 98
209 133 499 90 748 -28 157 -74 305 -107 337 -29 29 -84 41 -136 29 -23 -5
-200 -126 -497 -340 -254 -182 -466 -331 -471 -331 -11 0 -478 192 -506 207
-8 5 -64 76 -123 159 l-109 150 -7 185 c-3 101 -9 234 -12 294 l-6 111 173
131 c547 411 683 515 700 536 10 12 18 36 19 53 0 44 -85 171 -137 206 -126
83 -346 170 -514 203 -118 23 -352 28 -462 10z m483 -135 c102 -25 287 -113
349 -168 l44 -38 -439 -324 c-241 -177 -441 -324 -443 -326 -2 -2 1 -83 8
-180 6 -98 10 -179 8 -181 -7 -6 -550 810 -554 831 -6 30 77 128 162 193 85
65 286 167 373 189 154 38 340 40 492 4z m-624 -1205 c166 -247 357 -532 425
-631 l123 -182 295 -109 c286 -106 297 -109 326 -95 68 33 356 241 687 494
114 87 211 158 216 158 11 0 37 -89 53 -184 19 -111 7 -350 -24 -467 -49 -188
-137 -353 -233 -438 -99 -87 -354 -192 -594 -245 -320 -70 -692 -74 -878 -9
-48 17 -62 31 -253 263 -517 626 -740 921 -828 1097 -36 71 -37 86 -15 180 34
148 226 821 241 846 3 5 39 -44 81 -110 42 -65 212 -320 378 -568z m-612 -896
c14 -17 26 -40 26 -51 0 -22 -145 -208 -162 -208 -19 0 -78 68 -78 89 0 12 33
62 73 111 81 100 100 108 141 59z m163 -191 c38 -42 46 -67 29 -91 -30 -44
-141 -171 -154 -175 -17 -5 -82 61 -82 85 0 26 147 203 169 203 10 0 27 -10
38 -22z m154 -208 c20 -11 49 -60 49 -82 0 -21 -149 -198 -166 -198 -26 0 -74
56 -74 85 0 19 23 53 76 116 41 49 80 89 85 89 6 0 19 -5 30 -10z m171 -230
c14 -10 31 -33 38 -49 12 -30 10 -33 -65 -126 -45 -55 -85 -95 -95 -95 -20 0
-80 63 -80 84 0 18 152 206 166 206 6 0 23 -9 36 -20z"/>
<path d="M4255 9119 c-903 -69 -1708 -368 -2420 -899 -188 -140 -329 -262
-505 -439 -719 -723 -1169 -1649 -1295 -2665 -69 -553 -26 -1179 116 -1716 28
-105 105 -355 116 -372 2 -4 34 25 71 64 37 39 173 154 302 256 129 101 240
190 247 196 9 8 5 39 -17 130 -73 295 -104 566 -103 896 0 617 126 1142 405
1700 313 627 783 1143 1387 1523 160 101 506 271 681 336 939 346 1964 314
2874 -90 61 -27 111 -47 112 -46 9 10 146 341 208 501 60 154 74 201 64 207
-29 19 -221 100 -348 147 -343 127 -725 216 -1110 257 -176 19 -620 27 -785
14z"/>
<path d="M4807 7489 c-226 -34 -456 -234 -474 -414 -6 -53 -4 -58 48 -142 50
-83 488 -775 494 -781 6 -7 700 460 703 473 4 16 -145 299 -234 448 -111 182
-218 329 -264 363 -70 51 -165 70 -273 53z"/>
<path d="M3930 6950 c-221 -60 -406 -204 -484 -379 -34 -77 -46 -209 -27 -287
14 -53 31 -78 515 -739 l301 -410 13 65 c29 145 76 320 105 395 36 95 90 155
315 352 78 69 142 127 142 129 0 3 -140 197 -310 431 -189 261 -321 433 -337
442 -45 23 -149 24 -233 1z"/>
<path d="M5981 6584 c-281 -61 -653 -266 -1021 -561 -160 -128 -362 -321 -395
-378 -55 -94 -145 -370 -145 -446 0 -85 112 -168 279 -205 104 -23 318 -15
416 16 106 34 145 57 330 195 175 130 434 310 439 303 2 -1 -79 -124 -180
-272 -101 -148 -182 -271 -180 -273 2 -2 149 1 327 7 178 7 344 10 369 8 40
-3 -5 -20 -397 -152 -244 -83 -447 -152 -452 -156 -10 -6 -1231 -2391 -1238
-2418 -3 -13 37 -41 164 -117 l168 -100 -118 -3 c-115 -3 -117 -3 -112 -25 3
-12 61 -298 129 -636 l124 -614 -104 5 c-57 3 -106 7 -109 10 -3 3 -38 287
-77 631 l-73 626 -121 3 -121 3 604 1225 c332 674 612 1244 623 1267 l19 43
-58 -29 c-89 -46 -173 -64 -269 -59 -70 4 -93 10 -152 40 l-70 36 0 -48 c0
-114 -71 -254 -176 -348 -68 -61 -190 -125 -283 -148 -90 -23 -238 -16 -304
14 l-48 21 6 -42 c16 -106 -57 -297 -149 -392 -102 -104 -221 -140 -370 -110
l-84 17 -916 -749 c-504 -411 -942 -763 -974 -780 -31 -18 -87 -39 -124 -48
-179 -40 -345 11 -472 145 -111 118 -159 260 -137 408 14 92 63 202 117 262
22 24 405 331 851 682 447 352 813 641 813 643 0 5 -198 175 -204 175 -17 0
-1601 -1258 -1649 -1309 -71 -78 -128 -174 -163 -276 -39 -114 -46 -304 -15
-426 69 -274 278 -488 550 -561 57 -15 106 -20 196 -20 140 0 232 20 341 75
93 47 76 34 702 545 304 249 557 452 562 452 6 0 10 -7 10 -15 0 -29 71 -208
127 -320 102 -207 295 -468 464 -630 l73 -70 -32 -354 c-17 -195 -34 -356 -36
-358 -8 -8 -259 100 -401 172 -325 165 -621 371 -868 605 -53 51 -103 90 -110
87 -6 -3 -70 -53 -141 -111 -185 -153 -311 -222 -469 -257 -31 -6 -57 -15 -57
-19 0 -11 292 -296 385 -376 723 -616 1604 -989 2549 -1079 183 -17 610 -20
791 -5 965 81 1842 443 2590 1069 132 110 437 418 551 556 512 620 848 1339
988 2115 93 519 95 1061 5 1595 -58 344 -191 779 -334 1093 -38 83 -39 84 -69
78 -30 -6 -445 -61 -651 -87 -55 -7 -104 -15 -108 -19 -4 -4 17 -54 47 -111
207 -394 351 -877 401 -1354 17 -164 20 -556 5 -725 -110 -1216 -809 -2319
-1864 -2939 -109 -64 -381 -201 -399 -201 -9 0 -70 161 -176 463 l-161 463
544 1314 545 1315 -80 305 c-230 878 -439 1597 -480 1646 -15 19 -221 17 -308
-2z"/>
<path d="M3143 6091 c-184 -64 -347 -201 -424 -356 -41 -83 -44 -93 -47 -189
l-4 -101 45 -62 c91 -123 385 -455 824 -930 216 -233 250 -265 305 -292 152
-74 358 -36 505 94 99 87 142 226 101 325 -15 36 -294 429 -766 1080 -146 201
-277 382 -291 402 -14 20 -36 41 -49 47 -39 19 -114 12 -199 -18z"/>
<path d="M2420 5217 c-155 -64 -292 -209 -352 -373 -30 -83 -30 -207 1 -286
49 -127 326 -371 865 -765 227 -165 266 -186 368 -191 111 -6 167 15 244 92
74 74 105 147 107 246 1 106 -21 152 -135 287 -287 338 -861 963 -912 994 -42
26 -117 24 -186 -4z"/>
<path d="M4425 4903 c89 -137 203 -265 263 -295 66 -32 189 -32 286 1 145 50
287 178 303 275 6 36 4 39 -13 32 -68 -26 -201 -58 -283 -67 -152 -17 -329 4
-489 57 -40 13 -75 24 -78 24 -4 0 2 -12 11 -27z"/>
<path d="M940 2814 c-110 -30 -199 -105 -253 -214 -30 -60 -32 -72 -32 -165 0
-88 3 -107 27 -158 73 -155 199 -237 365 -237 221 0 393 173 393 394 0 260
-247 448 -500 380z m228 -130 c98 -49 156 -143 156 -254 -1 -84 -29 -145 -96
-205 -110 -99 -261 -97 -373 6 -125 115 -115 321 21 425 79 61 203 72 292 28z"/>
</g>
</svg>
